<svg height="496pt" viewBox="0 0 496 496.816" width="496pt" xmlns="http://www.w3.org/2000/svg"><path d="m144.40625 72c-7.117188 0-13.519531 3.039062-17.757812 8-3.839844-4.238281-6.242188-9.839844-6.242188-16 0-13.28125 10.722656-24 24-24 13.28125 0 24 10.71875 24 24 0 6.160156-2.398438 11.761719-6.238281 16-4.238281-4.960938-10.640625-8-17.761719-8zm0 0" fill="#cf9e76"/><path d="m112.40625 312h-72v-304h32v248c0 10.238281 4.082031 20.078125 11.28125 27.28125zm0 0" fill="#838f9b"/><path d="m381.128906 164.71875-89.441406-89.4375c-7.199219-7.203125-17.039062-11.28125-27.28125-11.28125-10.238281 0-20.078125 4.078125-27.277344 11.28125l-36.722656 36.71875-116.71875 116.71875c-7.199219 7.203125-11.28125 17.042969-11.28125 27.28125s4.082031 20.078125 11.28125 27.28125l28.71875 28.71875 60.722656 60.71875c7.199219 7.203125 17.039063 11.28125 27.277344 11.28125 10.242188 0 20.082031-4.078125 27.28125-11.28125l52.71875-52.71875v-72h12.800781c6.960938 0 13.921875-.480469 20.730469-1.519531 25.191406-3.601563 49.191406-13.761719 69.4375-29.679688 5.832031-6.878906 9.03125-15.679687 9.03125-24.800781 0-10.238281-4.078125-20.078125-11.277344-27.28125zm0 0" fill="#b4dd7f"/><path d="m224.40625 280c13.28125 0 24 10.71875 24 24s-10.71875 24-24 24c0 13.28125-10.71875 24-24 24-13.277344 0-24-10.71875-24-24s10.722656-24 24-24c0-13.28125 10.722656-24 24-24zm0 0" fill="#69d6f4"/><path d="m320.40625 192 24.003906-24 24 24-24 24.003906zm0 0" fill="#e6e9ed"/><path d="m312.40625 136-48 48-24-24 48-48zm0 0" fill="#cf9e76"/><path d="m40.40625 8v304c-17.679688 0-32-14.320312-32-32v-240c0-17.679688 14.320312-32 32-32zm0 0" fill="#69d6f4"/><path d="m200.40625 40v72l-116.71875 116.71875c-7.199219 7.203125-11.28125 17.042969-11.28125 27.28125v-248h96c17.683594 0 32 14.320312 32 32zm0 0" fill="#69d6f4"/><path d="m296.40625 216 24.003906-24 24 24-24 24.003906zm0 0" fill="#e6e9ed"/><path d="m320.40625 240-8 8h-32v-16l16-16zm0 0" fill="#e6e9ed"/><path d="m162.167969 48c3.921875 4.238281 6.238281 9.839844 6.238281 16 0 13.28125-10.71875 24-24 24-13.277344 0-24-10.71875-24-24 0-6.160156 2.320312-11.761719 6.242188-16 4.238281-4.960938 10.640624-8 17.757812-8 7.121094 0 13.523438 3.039062 17.761719 8zm0 0" fill="#b4dd7f"/><path d="m216.410156 136 24-24 24.003906 24-24.003906 24.003906zm0 0" fill="#fcd770"/><path d="m162.167969 80c3.921875 4.238281 6.238281 9.839844 6.238281 16 0 13.28125-10.71875 24-24 24-13.277344 0-24-10.71875-24-24 0-6.160156 2.320312-11.761719 6.242188-16 4.230468-4.960938 10.640624-8 17.757812-8 7.121094 0 13.523438 3.039062 17.761719 8zm0 0" fill="#fcd770"/><path d="m475.609375 248c-16.5625 0-32.882813-2.800781-48.320313-8.238281-15.359374-5.363281-29.921874-13.363281-42.882812-23.761719-.316406.238281-.71875.558594-1.039062.800781-20.238282 15.917969-44.238282 26.078125-69.4375 29.679688-6.800782 1.039062-13.761719 1.519531-20.722657 1.519531h-12.800781v77.441406c0 34.878906 10.152344 68.238282 28.242188 96.488282 18.078124 28.230468 44.078124 51.429687 75.757812 66.070312 63.363281-29.28125 104-92.71875 104-162.558594v-77.441406zm0 0" fill="#fcd770"/><path d="m424.40625 344v48c0 8.800781-7.199219 16-16 16h-48c-8.796875 0-16-7.199219-16-16v-48c0-8.800781 7.203125-16 16-16h48c8.800781 0 16 7.199219 16 16zm0 0" fill="#ccd1d9"/><g fill="#1e1713"><path d="m439.886719 373.230469 15.015625 5.53125c2.007812-5.457031 3.730468-11.082031 5.113281-16.746094l-15.542969-3.800781c-1.25 5.089844-2.792968 10.136718-4.585937 15.015625zm0 0"/><path d="m434.511719 266.910156-3.871094 15.53125c5.847656 1.453125 11.808594 2.636719 17.773437 3.527344v39.488281c0 5.855469-.382812 11.773438-1.132812 17.589844l15.871094 2.050781c.832031-6.488281 1.253906-13.097656 1.253906-19.632812v-53.6875l-7.125-.785156c-7.625-.832032-15.289062-2.199219-22.769531-4.082032zm0 0"/><path d="m224.40625 272c-15.167969 0-27.910156 10.617188-31.183594 24.816406-14.199218 3.273438-24.816406 16.015625-24.816406 31.183594 0 17.648438 14.355469 32 32 32 15.167969 0 27.914062-10.617188 31.1875-24.816406 14.199219-3.273438 24.8125-16.015625 24.8125-31.183594 0-17.648438-14.351562-32-32-32zm0 48h-8v8c0 8.824219-7.175781 16-16 16-8.820312 0-16-7.175781-16-16s7.179688-16 16-16h8v-8c0-8.824219 7.179688-16 16-16 8.824219 0 16 7.175781 16 16s-7.175781 16-16 16zm0 0"/><path d="m323.71875 136-59.3125-59.3125-59.308594 59.3125 59.308594 59.3125zm-59.3125 36.6875-12.6875-12.6875 36.6875-36.6875 12.691406 12.6875zm12.691406-60.6875-12.691406 12.6875-12.6875-12.6875 12.6875-12.6875zm-36.691406 11.3125 12.691406 12.6875-12.691406 12.6875-12.6875-12.6875zm0 0"/><path d="m90.746094 250.34375 48-47.996094 11.3125 11.3125-47.996094 47.996094zm0 0"/><path d="m160.007812 229.089844 10.742188-10.742188 11.3125 11.3125-10.742188 10.742188zm0 0"/><path d="m137.375 251.71875 11.3125-11.3125 11.3125 11.3125-11.3125 11.3125zm0 0"/><path d="m114.746094 274.34375 11.316406-11.316406 11.3125 11.316406-11.3125 11.3125zm0 0"/><path d="m112.40625 96c0 17.648438 14.355469 32 32 32 17.648438 0 32-14.351562 32-32 0-5.847656-1.6875-11.257812-4.4375-15.976562 2.863281-4.871094 4.4375-10.367188 4.4375-16.023438 0-17.648438-14.351562-32-32-32-17.644531 0-32 14.351562-32 32 0 5.65625 1.578125 11.152344 4.441406 16.023438-2.75 4.71875-4.441406 10.128906-4.441406 15.976562zm32 16c-8.820312 0-16-7.175781-16-16s7.179688-16 16-16c8.824219 0 16 7.175781 16 16s-7.175781 16-16 16zm0-64c8.824219 0 16 7.175781 16 16 0 1.519531-.253906 2.863281-.605469 4.121094-4.585937-2.546875-9.785156-4.121094-15.394531-4.121094-5.605469 0-10.804688 1.574219-15.390625 4.121094-.351563-1.257813-.609375-2.601563-.609375-4.121094 0-8.824219 7.179688-16 16-16zm0 0"/><path d="m475.632812 240c-28.960937 0-57.335937-9.335938-80.753906-26.238281 3.535156-6.683594 5.527344-14.121094 5.527344-21.761719 0-12.457031-4.847656-24.167969-13.652344-32.96875l-89.378906-89.375c-8.679688-8.679688-20.695312-13.65625-32.96875-13.65625-12.269531 0-24.285156 4.976562-32.964844 13.65625l-23.035156 23.03125v-52.6875c0-22.054688-17.941406-40-40-40h-128c-22.054688 0-40 17.945312-40 40v240c0 22.054688 17.945312 40 40 40h68.691406l58.34375 58.34375c8.679688 8.679688 20.695313 13.65625 32.964844 13.65625 12.273438 0 24.289062-4.976562 32.96875-13.65625l39.519531-39.519531c4.867188 67.40625 46.226563 127.855469 108.160157 156.441406l3.351562 1.550781 3.355469-1.542968c66-30.464844 108.644531-97.113282 108.644531-169.808594v-85.464844zm-283.226562-200v68.6875l-112 112v-204.6875h88c13.234375 0 24 10.769531 24 24zm-176 240v-240c0-10.414062 6.714844-19.214844 16-22.527344v285.046875c-9.285156-3.304687-16-12.105469-16-22.519531zm32 24v-288h16v240c0 12.273438 4.976562 24.289062 13.65625 32.96875l15.035156 15.03125zm173.65625 63.03125c-5.703125 5.703125-13.589844 8.96875-21.65625 8.96875-8.0625 0-15.949219-3.265625-21.652344-8.96875l-89.378906-89.375c-5.703125-5.703125-8.96875-13.59375-8.96875-21.65625 0-8.175781 3.1875-15.871094 8.96875-21.65625l153.378906-153.375c5.703125-5.695312 13.589844-8.96875 21.652344-8.96875 8.066406 0 15.953125 3.273438 21.65625 8.96875l89.378906 89.375c5.78125 5.785156 8.964844 13.480469 8.964844 21.65625 0 6.894531-2.398438 13.585938-6.679688 18.984375-11.460937 8.886719-24.222656 15.886719-37.757812 20.769531l39.75-39.753906-35.3125-35.3125-72 72v88zm122.34375-162.34375-12.6875-12.6875 12.6875-12.6875 12.691406 12.6875zm-24-1.375 12.691406 12.6875-12.691406 12.6875-12.6875-12.6875zm-24 24 11.761719 11.757812c-4.96875.554688-9.960938.929688-14.984375.929688h-4.777344v-4.6875zm184 98.152344c0 65.230468-37.550781 125.152344-96 153.679687-58.445312-28.527343-96-88.449219-96-153.679687v-69.464844h4.777344c32.746094 0 64.886718-10.585938 91.222656-29.921875 26.335938 19.335937 58.488281 29.921875 91.226562 29.921875h4.773438zm0 0"/><path d="m416.40625 321.472656v-33.472656c0-17.648438-14.351562-32-32-32-17.644531 0-32 14.351562-32 32v33.472656c-9.285156 3.3125-16 12.113282-16 22.527344v48c0 13.230469 10.769531 24 24 24h48c13.234375 0 24-10.769531 24-24v-48c0-10.414062-6.710938-19.214844-16-22.527344zm-32-49.472656c8.824219 0 16 7.175781 16 16v32h-32v-32c0-8.824219 7.179688-16 16-16zm32 120c0 4.414062-3.582031 8-8 8h-48c-4.414062 0-8-3.585938-8-8v-48c0-4.414062 3.585938-8 8-8h48c4.417969 0 8 3.585938 8 8zm0 0"/></g></svg>